<svg xmlns="http://www.w3.org/2000/svg" width="32" height="32" viewBox="0 0 32 32">
    <g fill="none" fill-rule="evenodd" transform="translate(-3 -3)">
        <circle cx="19" cy="19" r="19"/>
        <path fill="#6C6E86" stroke="#FFF" stroke-width=".3" d="M29.44 20.715c0 1.163-.804 2.146-1.9 2.456-.265-1.062-1.249-1.854-2.422-1.854-1.211 0-2.223.843-2.448 1.956h-6.972c-.225-1.113-1.237-1.956-2.448-1.956-1.21 0-2.222.843-2.447 1.956H9.708c-.634 0-1.149-.5-1.149-1.115 0-2.332 1.953-4.23 4.353-4.23h14.822c.941 0 1.707.744 1.707 1.658v1.129zm-4.322 4.292c-.718 0-1.303-.568-1.303-1.266 0-.697.585-1.265 1.303-1.265s1.302.568 1.302 1.265c0 .698-.584 1.266-1.302 1.266zm-11.868 0c-.718 0-1.302-.568-1.302-1.266 0-.697.584-1.265 1.302-1.265.718 0 1.303.568 1.303 1.265 0 .698-.585 1.266-1.303 1.266zm1.466-8.955c1.114-1.502 2.813-2.488 4.674-2.754v3.472h-5.207l.533-.718zm11.41.054l.482.664h-6.025v-3.54c2.205.055 4.266 1.12 5.542 2.876zm1.958.686l-.984-1.355c-1.534-2.111-4.039-3.372-6.7-3.372-2.628 0-5.115 1.237-6.652 3.31l-1.042 1.405c-2.962.106-5.34 2.474-5.34 5.378 0 1.254 1.05 2.274 2.342 2.274h1.152c.307 1.001 1.262 1.734 2.39 1.734 1.13 0 2.084-.733 2.391-1.734h7.086c.307 1.001 1.262 1.734 2.39 1.734 1.155 0 2.125-.766 2.41-1.802 1.766-.328 3.106-1.838 3.106-3.65v-1.128c0-1.437-1.115-2.625-2.55-2.794z"/>
    </g>
</svg>
