<svg xmlns="http://www.w3.org/2000/svg" width="32" height="32" viewBox="0 0 32 32">
    <g fill="none" fill-rule="evenodd" transform="translate(-3 -3)">
        <circle cx="19" cy="19" r="19"/>
        <path fill="#6C6E86" fill-rule="nonzero" d="M13.006 15.208c.62-1.78.903-2.612 1.218-3.608a.62.62 0 0 1 1.113-.15c.09.143.12.313.085.479l-1.475 6.752c-.13.71.055 1.436.506 1.99.45.554 1.111.871 1.814.871h2.347c.488 0 .95-.218 1.269-.597.32-.381.46-.884.384-1.38l-.5-3.288.233-.003.07-.001h.071c3.12-.029 4.29.198 5.78 1.503.64.615 2.707 4.622 2.908 5.745l.039.218-.221.019-.757.064H10.507l.044-.239c.417-2.246 1.022-4.251 2.278-7.865.05-.141.089-.255.177-.51zm15.998 9.196a.512.512 0 0 0 .455-.379c.299-.947-2.306-6.052-3.123-6.767-1.622-1.42-2.96-1.688-6.202-1.66-.362.004-.535.005-.746.005h-.38l.616 4.066c.046.3-.039.603-.232.833a1.013 1.013 0 0 1-.778.366h-2.347c-.51 0-.991-.23-1.316-.63a1.759 1.759 0 0 1-.368-1.42l1.38-6.316 2.098-.598-.214-.783-1.762.501-.055-.193a1.26 1.26 0 0 0-.966-.916 1.268 1.268 0 0 0-1.459.878c-.312.989-.595 1.821-1.21 3.589-1.562 4.486-2.18 6.541-2.595 9.123l-.063.392 18.21-.001 1.057-.09z"/>
        <path stroke="#6C6E86" stroke-width=".7" d="M12.64 24.36a1.794 1.794 0 0 0 3.59 0M22.51 24.36a1.794 1.794 0 0 0 3.589 0"/>
    </g>
</svg>
