<svg xmlns="http://www.w3.org/2000/svg" width="32" height="32" viewBox="0 0 32 32">
    <g fill="none" fill-rule="evenodd" transform="translate(-3 -3)">
        <circle cx="19" cy="19" r="19"/>
        <path fill="#6C6E86" stroke="#FFF" stroke-width=".2" d="M11.538 16.403a1.535 1.535 0 0 1 1.215-.593h1.142v2.867h-3.669l-.033.002 1.345-2.276zm3.456-2.85c0-.828.692-1.501 1.542-1.501h9.491c.851 0 1.544.673 1.544 1.5v5.587a2.62 2.62 0 0 0-1.49-.462H14.993v-3.384h.002v-1.74zm12.577 8.639c0 1.217-1.003 2.209-2.247 2.242-.208-1.024-1.138-1.8-2.252-1.8-1.114 0-2.045.777-2.252 1.803h-5.115c-.207-1.026-1.138-1.802-2.252-1.802-1.114 0-2.045.776-2.252 1.802h-1.07c-.548 0-.994-.434-.994-.968v-2.665c0-.584.488-1.06 1.09-1.06h15.855c.82 0 1.489.65 1.489 1.448v1zm-4.499 3.841c-.66 0-1.198-.523-1.198-1.165 0-.643.538-1.166 1.198-1.166.661 0 1.2.523 1.2 1.166 0 .642-.539 1.165-1.2 1.165zm-9.619 0c-.66 0-1.198-.523-1.198-1.165 0-.643.537-1.166 1.198-1.166.66 0 1.199.523 1.199 1.166 0 .642-.538 1.165-1.199 1.165zM8.04 23.47c0 1.122.94 2.035 2.093 2.035h1.122c.282.922 1.16 1.596 2.2 1.596a2.292 2.292 0 0 0 2.199-1.596h5.22c.282.922 1.16 1.596 2.2 1.596 1.038 0 1.917-.674 2.2-1.597 1.872-.005 3.395-1.488 3.395-3.311v-1c0-.147-.016-.29-.041-.43.024-.097.041-.196.041-.3v-6.91c0-1.416-1.185-2.568-2.64-2.568h-9.492c-1.455 0-2.64 1.152-2.64 2.568v1.19h-1.143c-.838 0-1.631.396-2.12 1.057L8.16 19.977h.05c-.11.254-.172.534-.172.827v2.665z"/>
    </g>
</svg>
