<?xml version="1.0" encoding="utf-8"?>
<!-- Generator: Adobe Illustrator 24.1.1, SVG Export Plug-In . SVG Version: 6.00 Build 0)  -->
<svg version="1.1" id="Layer_1" xmlns="http://www.w3.org/2000/svg" xmlns:xlink="http://www.w3.org/1999/xlink" x="0px" y="0px"
	 viewBox="0 0 26 54" style="enable-background:new 0 0 26 54;" xml:space="preserve">
<style type="text/css">
	.st0{fill:#FFFFFF;}
	.st1{fill:#868AA8;}
	.st2{fill:none;stroke:#868AA8;stroke-width:2;stroke-miterlimit:10;}
	.st3{fill:none;stroke:#868AA8;stroke-width:2;stroke-miterlimit:10;stroke-dasharray:1.7143,1.7143;}
</style>
<g>
	<circle class="st0" cx="12.8" cy="12" r="7.5"/>
	<path class="st1" d="M12.8,5c3.9,0,7,3.1,7,7s-3.1,7-7,7s-7-3.1-7-7S9,5,12.8,5 M12.8,4c-4.4,0-8,3.6-8,8s3.6,8,8,8s8-3.6,8-8
		S17.3,4,12.8,4L12.8,4z"/>
</g>
<g>
	<circle class="st0" cx="12.8" cy="41" r="7.5"/>
	<path class="st1" d="M12.8,34c3.9,0,7,3.1,7,7s-3.1,7-7,7s-7-3.1-7-7S9,34,12.8,34 M12.8,33c-4.4,0-8,3.6-8,8s3.6,8,8,8s8-3.6,8-8
		S17.3,33,12.8,33L12.8,33z"/>
</g>
<g>
	<g>
		<line class="st2" x1="12.8" y1="19.5" x2="12.8" y2="20.5"/>
		<line class="st3" x1="12.8" y1="22.2" x2="12.8" y2="31.6"/>
		<line class="st2" x1="12.8" y1="32.5" x2="12.8" y2="33.5"/>
	</g>
</g>
</svg>
