<?xml version="1.0" encoding="utf-8"?>
<!-- Generator: Adobe Illustrator 24.0.3, SVG Export Plug-In . SVG Version: 6.00 Build 0)  -->
<svg version="1.1" id="Layer_1" xmlns="http://www.w3.org/2000/svg" xmlns:xlink="http://www.w3.org/1999/xlink" x="0px" y="0px"
	 viewBox="0 0 32 32" style="enable-background:new 0 0 32 32;" xml:space="preserve">
<style type="text/css">
	.st0{fill:#868AA8;}
</style>
<g>
	<path class="st0" d="M19.5,5C17.6,5,16,6.6,16,8.5c0,1.9,1.6,3.5,3.5,3.5S23,10.4,23,8.5S21.4,5,19.5,5z M19.5,7
		C20.3,7,21,7.7,21,8.5S20.3,10,19.5,10S18,9.3,18,8.5S18.7,7,19.5,7z M15.1,10.5c-0.5,0.1-1,0.3-1.3,0.7l-2.3,2.8
		c-0.8,1-0.5,2.5,0.7,3.1l3.4,1.7l-0.9,5l2,0.3l1.1-5.8l0.1-0.8l-0.7-0.3l-4.2-2l2.4-2.9l4.1,3.3l0.3,0.2H25v-2h-4.7l-3.8-3
		C16.1,10.6,15.6,10.5,15.1,10.5z M8.5,18C6,18,4,20,4,22.5S6,27,8.5,27s4.5-2,4.5-4.5S11,18,8.5,18z M23.5,18C21,18,19,20,19,22.5
		s2,4.5,4.5,4.5s4.5-2,4.5-4.5S26,18,23.5,18z M8.5,20c1.4,0,2.5,1.1,2.5,2.5S9.9,25,8.5,25C7.1,25,6,23.9,6,22.5
		C6,21.1,7.1,20,8.5,20z M23.5,20c1.4,0,2.5,1.1,2.5,2.5S24.9,25,23.5,25c-1.4,0-2.5-1.1-2.5-2.5C21,21.1,22.1,20,23.5,20z"/>
</g>
</svg>
