<?xml version="1.0" encoding="utf-8"?>
<!-- Generator: Adobe Illustrator 24.0.3, SVG Export Plug-In . SVG Version: 6.00 Build 0)  -->
<svg version="1.1" id="Layer_1" xmlns="http://www.w3.org/2000/svg" xmlns:xlink="http://www.w3.org/1999/xlink" x="0px" y="0px"
	 viewBox="0 0 32 32" style="enable-background:new 0 0 32 32;" xml:space="preserve">
<style type="text/css">
	.st0{fill:#868AA8;}
</style>
<g>
	<path class="st0" d="M6,3v26h20V9.6l-0.3-0.3l-6-6L19.4,3C19.4,3,6,3,6,3z M8,5h10v6h6v16H8V5z M20,6.4L22.6,9H20V6.4z M10,9v2h6V9
		H10z M10,13v2h12v-2H10z M13.5,16c-0.9,0-1.6,0.6-2,1.3C11.1,18,11,18.9,11,19.9c0,0.6,0.2,1.2,0.3,1.8c-0.4,0.1-0.8,0.4-1.3,0.4v2
		c0.7,0,1.4-0.1,2-0.3c0.1,0.2,0.1,0.3,0.3,0.5c0.4,0.4,1,0.7,1.7,0.7c1.6,0,2.6-1.1,3.3-1.9c0.1-0.2,0.2-0.3,0.3-0.4
		c0,0.1,0,0.2,0.1,0.3c0.1,0.2,0.2,0.4,0.4,0.6c0.2,0.2,0.6,0.4,0.9,0.4c0.6,0,1-0.4,1.2-0.6s0.4-0.5,0.6-0.7
		c0.4-0.4,0.7-0.7,1.1-0.7v-2c-1.2,0-2.1,0.7-2.6,1.3c0-0.1,0-0.2-0.1-0.3c-0.1-0.2-0.2-0.4-0.4-0.7C18.6,20,18.3,20,18,20
		c-0.8,0-1.1,0.5-1.4,0.8s-0.6,0.7-0.8,1.1c-0.6,0.7-1,1.1-1.8,1.1c-0.1,0-0.1-0.1-0.2-0.1c0.1,0,0.1-0.1,0.2-0.1
		c1.1-0.9,2-2.1,2-3.7c0-0.8-0.2-1.5-0.6-2.1C15,16.4,14.3,16,13.5,16z M13.4,18c0.3,0,0.3,0,0.4,0.2c0.1,0.2,0.2,0.5,0.2,1
		c0,0.6-0.3,1.2-0.8,1.7c0-0.3-0.2-0.7-0.2-0.9c0-0.8,0.1-1.4,0.3-1.7C13.4,18.1,13.4,18,13.4,18z"/>
</g>
</svg>
