<?xml version="1.0" encoding="utf-8"?>
<!-- Generator: Adobe Illustrator 24.0.3, SVG Export Plug-In . SVG Version: 6.00 Build 0)  -->
<svg version="1.1" id="Layer_1" xmlns="http://www.w3.org/2000/svg" xmlns:xlink="http://www.w3.org/1999/xlink" x="0px" y="0px"
	 viewBox="0 0 32 32" style="enable-background:new 0 0 32 32;" xml:space="preserve">
<style type="text/css">
	.st0{fill:#868AA8;}
</style>
<g>
	<path class="st0" d="M2,7v17h28V7H2z M6,9h20c0,1.1,0.9,2,2,2v9c-1.1,0-2,0.9-2,2H6c0-1.1-0.9-2-2-2v-9C5.1,11,6,10.1,6,9z M16,11
		c-2.2,0-4,2-4,4.5s1.8,4.5,4,4.5s4-2,4-4.5S18.2,11,16,11z M16,13c1.1,0,2,1.1,2,2.5S17.1,18,16,18s-2-1.1-2-2.5S14.9,13,16,13z
		 M8.5,14C7.7,14,7,14.7,7,15.5C7,16.3,7.7,17,8.5,17s1.5-0.7,1.5-1.5C10,14.7,9.3,14,8.5,14z M23.5,14c-0.8,0-1.5,0.7-1.5,1.5
		s0.7,1.5,1.5,1.5s1.5-0.7,1.5-1.5S24.3,14,23.5,14z"/>
</g>
</svg>
